# xmcd
#
# Track frame offsets:
#	150
#	16815
#	33595
#	50877
#	66202
#	86532
#	101957
#	119640
#	133517
#	150987
#	172625
#	190497
#
# Disc length: 2722 seconds
#
# Revision: 1
# Processed by: cddbd v1.5.2PL0 Copyright (c) Steve Scherf et al.
# Submitted via: EasyCDDAExtractor 2010.4.0.0
#
DISCID=9f0aa00c
DTITLE=Jose Gaviria - Mundo Nuevo
DYEAR=1900
DGENRE=
TTITLE0=Cada Vez Que Pienso En Ti
TTITLE1=Dime Que Pasa
TTITLE2=Por Tu Amor
TTITLE3=Aqui Voy
TTITLE4=Lejos De Mi
TTITLE5=El Camino
TTITLE6=Especie De Amor
TTITLE7=Mi Morena
TTITLE8=Angel
TTITLE9=Si Hoy No Estas Aqui
TTITLE10=Mundo Nuevo
TTITLE11=Cada Vez Que Pienso En Ti (Version Piano)
EXTD=
EXTT0=
EXTT1=
EXTT2=
EXTT3=
EXTT4=
EXTT5=
EXTT6=
EXTT7=
EXTT8=
EXTT9=
EXTT10=
EXTT11=
PLAYORDER=
